<svg width="26" height="26" viewBox="0 0 26 26" fill="none" xmlns="http://www.w3.org/2000/svg">
<path d="M13 0C10.4288 0 7.91543 0.762437 5.77759 2.1909C3.63975 3.61935 1.97351 5.64968 0.989572 8.02512C0.0056327 10.4006 -0.251811 13.0144 0.249797 15.5362C0.751405 18.0579 1.98953 20.3743 3.80762 22.1924C5.6257 24.0105 7.94208 25.2486 10.4638 25.7502C12.9856 26.2518 15.5995 25.9944 17.9749 25.0104C20.3503 24.0265 22.3807 22.3603 23.8091 20.2224C25.2376 18.0846 26 15.5712 26 13C25.996 9.55341 24.6251 6.24912 22.188 3.81201C19.7509 1.3749 16.4466 0.00398351 13 0ZM17.707 16.293C17.8 16.3858 17.8739 16.496 17.9242 16.6174C17.9746 16.7387 18.0006 16.8688 18.0007 17.0002C18.0007 17.1316 17.9749 17.2617 17.9246 17.3832C17.8744 17.5046 17.8007 17.6149 17.7078 17.7078C17.6149 17.8007 17.5046 17.8744 17.3832 17.9246C17.2617 17.9749 17.1316 18.0007 17.0002 18.0006C16.8688 18.0006 16.7387 17.9746 16.6174 17.9242C16.496 17.8738 16.3858 17.8 16.293 17.707L13 14.4141L9.70704 17.707C9.51945 17.8942 9.26523 17.9993 9.00023 17.9991C8.73522 17.999 8.48111 17.8937 8.29373 17.7063C8.10634 17.5189 8.00101 17.2648 8.00086 16.9998C8.00072 16.7348 8.10579 16.4806 8.29297 16.293L11.5859 13L8.29297 9.70703C8.10579 9.51945 8.00072 9.26522 8.00086 9.00022C8.00101 8.73522 8.10634 8.48111 8.29373 8.29372C8.48111 8.10634 8.73522 8.001 9.00023 8.00086C9.26523 8.00072 9.51945 8.10578 9.70704 8.29297L13 11.5859L16.293 8.29297C16.4806 8.10578 16.7348 8.00072 16.9998 8.00086C17.2648 8.001 17.5189 8.10634 17.7063 8.29372C17.8937 8.48111 17.999 8.73522 17.9991 9.00022C17.9993 9.26522 17.8942 9.51945 17.707 9.70703L14.4141 13L17.707 16.293Z" fill="#E07F4F"/>
</svg>
