
<svg width="29" height="28" viewBox="0 0 29 28" fill="none" xmlns="http://www.w3.org/2000/svg">
<path d="M14.4875 0.384279C6.75937 0.381154 0.5 6.63741 0.5 14.3593C0.5 20.4656 4.41562 25.6562 9.86875 27.5624C10.6031 27.7468 10.4906 27.2249 10.4906 26.8687V24.4468C6.25 24.9437 6.07812 22.1374 5.79375 21.6687C5.21875 20.6874 3.85937 20.4374 4.26562 19.9687C5.23125 19.4718 6.21562 20.0937 7.35625 21.7781C8.18125 22.9999 9.79062 22.7937 10.6062 22.5906C10.7844 21.8562 11.1656 21.1999 11.6906 20.6906C7.29687 19.9031 5.46562 17.2218 5.46562 14.0343C5.46562 12.4874 5.975 11.0655 6.975 9.91867C6.3375 8.02804 7.03437 6.40929 7.12812 6.16866C8.94375 6.00616 10.8312 7.46866 10.9781 7.58429C12.0094 7.30616 13.1875 7.15929 14.5062 7.15929C15.8312 7.15929 17.0125 7.31241 18.0531 7.59366C18.4062 7.32491 20.1562 6.06866 21.8437 6.22179C21.9344 6.46241 22.6156 8.04366 22.0156 9.90929C23.0281 11.0593 23.5437 12.4937 23.5437 14.0437C23.5437 17.2374 21.7 19.9218 17.2937 20.6968C17.6712 21.068 17.9708 21.5106 18.1752 21.9989C18.3797 22.4871 18.4848 23.0112 18.4844 23.5406V27.0562C18.5094 27.3374 18.4844 27.6156 18.9531 27.6156C24.4875 25.7499 28.4719 20.5218 28.4719 14.3624C28.4719 6.63741 22.2094 0.384279 14.4875 0.384279Z" fill="#8FA3BF"/>
</svg>
