<svg width="26" height="26" viewBox="0 0 26 26" fill="none" xmlns="http://www.w3.org/2000/svg">
<path d="M13 0C10.4288 0 7.91543 0.762437 5.77759 2.1909C3.63975 3.61935 1.97351 5.64968 0.989572 8.02512C0.0056327 10.4006 -0.251811 13.0144 0.249797 15.5362C0.751405 18.0579 1.98953 20.3743 3.80762 22.1924C5.6257 24.0105 7.94208 25.2486 10.4638 25.7502C12.9856 26.2518 15.5995 25.9944 17.9749 25.0104C20.3503 24.0265 22.3807 22.3603 23.8091 20.2224C25.2376 18.0846 26 15.5712 26 13C25.996 9.55341 24.6251 6.24912 22.188 3.81201C19.7509 1.3749 16.4466 0.00398351 13 0ZM19.1914 10.7236L11.8574 17.7236C11.671 17.9011 11.4234 18 11.166 18C10.9086 18 10.6611 17.9011 10.4746 17.7236L6.8086 14.2236C6.61707 14.0402 6.5062 13.7882 6.50033 13.523C6.49446 13.2579 6.59407 13.0012 6.77729 12.8095C6.96051 12.6177 7.21235 12.5065 7.4775 12.5003C7.74265 12.4941 7.99942 12.5934 8.19141 12.7764L11.166 15.6172L17.8086 9.27637C18.0006 9.09339 18.2574 8.9941 18.5225 9.00031C18.7877 9.00651 19.0395 9.11771 19.2227 9.30947C19.4059 9.50123 19.5056 9.75788 19.4997 10.023C19.4938 10.2882 19.3829 10.5402 19.1914 10.7236Z" fill="#29CC74"/>
</svg>
